#!OML:ASF F:\VICON\USERDATA\INSTALL\rory3\rory3.ASF
:FULLY-SPECIFIED
:DEGREES
2234
root 4.44859 18.2126 -1.45912 -16.5285 -1.27795 -1.06387
lowerback 0.998277 -0.917283 -7.18021
upperback 0.0892355 -1.30374 -0.502729
thorax -0.320087 -0.642487 3.52021
lowerneck 3.66161 -6.5546 -10.0521
upperneck 23.7189 -10.25 6.29909
head 7.53979 -5.4142 3.15825
rclavicle -2.00773e-014 -2.46493e-014
rhumerus 34.6126 -28.7448 -77.494
rradius 37.1562
rwrist 13.6237
rhand -25.2588 -5.62835
rfingers 7.12502
rthumb 1.26162 -35.6044
lclavicle -2.00773e-014 -2.46493e-014
lhumerus 6.67554 -18.5994 78.3483
lradius 86.0574
lwrist 24.7874
lhand -26.804 26.1513
lfingers 7.12502
lthumb -0.230795 56.1309
rfemur -16.1422 7.11507 2.35144
rtibia 47.609
rfoot 16.4523 -12.7692
rtoes 0.821443
lfemur 18.9012 -2.87864 -16.3685
ltibia 23.8686
lfoot -24.0975 19.0449
ltoes -10.8448
2235
root 4.52432 18.2375 -1.53366 -16.6826 -1.38755 -1.31368
lowerback 1.09264 -0.935069 -7.15135
upperback 0.191414 -1.33015 -0.361552
thorax -0.261672 -0.660422 3.65094
lowerneck 3.64354 -6.59691 -10.0467
upperneck 23.8271 -10.3238 6.33171
head 7.58738 -5.44733 3.16151
rclavicle -1.03368e-014 -2.14687e-014
rhumerus 32.309 -25.0449 -75.827
rradius 34.9758
rwrist 11.3997
rhand -24.5333 -5.63803
rfingers 7.12502
rthumb 1.96233 -35.6088
lclavicle -1.03368e-014 -2.14687e-014
lhumerus 6.29941 -19.9314 79.0236
lradius 84.5074
lwrist 22.402
lhand -26.3931 25.6197
lfingers 7.12502
lthumb 0.166031 55.5993
rfemur -16.6072 7.44238 2.16357
rtibia 47.148
rfoot 18.5293 -11.8287
rtoes 3.60258
lfemur 19.0518 -2.83463 -16.2987
ltibia 23.4137
lfoot -23.6237 19.0012
ltoes -11.5097
2236
root 4.59577 18.2674 -1.60478 -16.8392 -1.46926 -1.42243
lowerback 1.2464 -0.929881 -7.26965
upperback 0.269142 -1.3341 -0.257265
thorax -0.26193 -0.664465 3.82735
lowerneck 3.65755 -6.62954 -10.1368
upperneck 23.9021 -10.3998 6.44815
head 7.62811 -5.48406 3.20934
rclavicle 5.96354e-016 -3.97569e-015
rhumerus 30.1126 -20.8456 -74.1493
rradius 32.933
rwrist 9.207
rhand -24.1109 -5.95723
rfingers 7.12502
rthumb 2.37026 -35.9238
lclavicle 5.96354e-016 -3.97569e-015
lhumerus 5.68395 -21.2141 79.7601
lradius 83.2257
lwrist 20.2321
lhand -25.771 24.6582
lfingers 7.12502
lthumb 0.766881 54.6365
rfemur -17.0235 7.73986 1.83093
rtibia 46.5699
rfoot 20.6336 -10.3975
rtoes 5.36695
lfemur 19.1619 -2.71007 -16.3189
ltibia 22.9948
lfoot -23.1817 18.8845
ltoes -11.7912
2237
root 4.66389 18.2989 -1.67008 -16.9899 -1.44356 -1.28174
lowerback 1.38546 -0.941107 -7.63107
upperback 0.351979 -1.36248 -0.267616
thorax -0.242547 -0.681544 4.02119
lowerneck 3.52592 -6.67222 -10.2052
upperneck 24.0701 -10.4856 6.57188
head 7.72557 -5.51999 3.24924
rclavicle 6.55989e-015 -2.14687e-014
rhumerus 28.0587 -16.0294 -72.4746
rradius 31.1016
rwrist 7.2606
rhand -23.628 -6.14367
rfingers 7.12502
rthumb 2.83662 -36.1046
lclavicle 6.55989e-015 -2.14687e-014
lhumerus 5.02949 -22.4188 80.4066
lradius 82.3145
lwrist 18.3763
lhand -24.7227 23.8218
lfingers 7.12502
lthumb 1.77943 53.7941
rfemur -17.363 7.90437 1.19335
rtibia 45.9174
rfoot 22.6093 -8.71768
rtoes 5.86513
lfemur 19.2636 -2.55896 -16.6094
ltibia 22.6105
lfoot -22.7855 18.5879
ltoes -11.127
2238
root 4.72497 18.3281 -1.73459 -17.051 -1.46983 -1.10052
lowerback 1.51969 -0.902286 -8.00334
upperback 0.401606 -1.32663 -0.350526
thorax -0.264367 -0.664166 4.14547
lowerneck 3.29393 -6.7749 -10.132
upperneck 24.2446 -10.6527 6.69632
head 7.84225 -5.57974 3.25576
rclavicle 6.55989e-015 -1.03368e-014
rhumerus 26.0866 -10.6573 -70.8401
rradius 29.6141
rwrist 5.64713
rhand -23.1827 -5.81647
rfingers 7.12502
rthumb 3.26671 -35.7712
lclavicle 6.55989e-015 -1.03368e-014
lhumerus 4.3222 -23.6231 80.9605
lradius 81.8343
lwrist 16.9506
lhand -23.3432 23.5091
lfingers 7.12502
lthumb 3.11165 53.4662
rfemur -17.8128 8.15548 0.550445
rtibia 45.2358
rfoot 24.2787 -7.21704
rtoes 5.14239
lfemur 19.2619 -2.35837 -16.9291
ltibia 22.2482
lfoot -22.3804 18.3271
ltoes -10.3011
2239
root 4.78227 18.356 -1.79962 -17.0032 -1.50445 -1.12147
lowerback 1.64303 -0.863069 -8.13423
upperback 0.391389 -1.28897 -0.382954
thorax -0.347004 -0.641795 4.18725
lowerneck 3.23254 -6.86035 -10.2372
upperneck 24.2422 -10.8356 7.01494
head 7.89179 -5.65153 3.36214
rclavicle -1.0138e-014 -9.54166e-015
rhumerus 24.2432 -4.94602 -69.3791
rradius 28.6075
rwrist 4.36871
rhand -21.8851 -5.62452
rfingers 7.12502
rthumb 4.51968 -35.5563
lclavicle -1.0138e-014 -9.54166e-015
lhumerus 3.45622 -24.7055 81.6355
lradius 81.6444
lwrist 15.9098
lhand -21.8084 23.4263
lfingers 7.12502
lthumb 4.5938 53.3565
rfemur -18.2988 8.37405 0.162122
rtibia 44.4936
rfoot 25.4001 -5.98312
rtoes 3.35184
lfemur 19.0652 -2.30349 -17.0773
ltibia 22.0064
lfoot -22.0793 18.2811
ltoes -9.59554
2240
root 4.83819 18.3833 -1.86358 -16.9103 -1.57302 -1.40305
lowerback 1.7036 -0.870847 -7.98367
upperback 0.412917 -1.30106 -0.290236
thorax -0.358348 -0.648171 4.20031
lowerneck 2.93877 -6.92679 -10.4645
upperneck 24.3193 -10.9504 7.24242
head 8.00637 -5.70093 3.45335
rclavicle 1.33186e-014 1.66979e-014
rhumerus 22.7588 0.701308 -68.357
rradius 27.9007
rwrist 3.89456
rhand -19.8649 -5.05652
rfingers 7.12502
rthumb 6.47026 -34.9377
lclavicle 1.33186e-014 1.66979e-014
lhumerus 2.44266 -25.5508 82.4249
lradius 81.7468
lwrist 15.0494
lhand -20.0799 22.8468
lfingers 7.12502
lthumb 6.26265 52.7343
rfemur -18.7008 8.54994 0.0863835
rtibia 43.6581
rfoot 25.8678 -5.09576
rtoes 1.92341
lfemur 18.7448 -2.33189 -16.9712
ltibia 21.9558
lfoot -21.9367 18.4254
ltoes -9.31161
2241
root 4.89344 18.4095 -1.92929 -16.8225 -1.53232 -1.81906
lowerback 1.8943 -0.891158 -7.61062
upperback 0.475184 -1.33584 -0.251177
thorax -0.404193 -0.665769 4.03534
lowerneck 2.46327 -7.02656 -10.5087
upperneck 24.4021 -11.0968 7.4484
head 8.14624 -5.74502 3.49731
rclavicle 9.34288e-015 -1.74931e-014
rhumerus 21.489 5.68964 -68.0238
rradius 27.4073
rwrist 4.56893
rhand -17.7858 -3.84377
rfingers 7.12502
rthumb 8.47703 -33.6536
lclavicle 9.34288e-015 -1.74931e-014
lhumerus 1.46908 -26.5137 83.0595
lradius 82.157
lwrist 14.3139
lhand -18.2145 21.9183
lfingers 7.12502
lthumb 8.06335 51.7445
rfemur -18.9451 8.59054 0.15732
rtibia 42.7338
rfoot 25.7885 -4.60505
rtoes 2.33098
lfemur 18.3814 -2.5344 -16.7838
ltibia 22.009
lfoot -21.8597 18.6469
ltoes -9.2631
2242
root 4.94628 18.4376 -1.99159 -16.681 -1.45238 -2.39998
lowerback 2.07087 -0.903054 -7.05291
upperback 0.545153 -1.35264 -0.217046
thorax -0.441301 -0.674935 3.76115
lowerneck 2.12572 -7.15152 -10.3578
upperneck 24.1826 -11.2717 7.63445
head 8.14845 -5.79002 3.50571
rclavicle -1.55052e-014 -3.26007e-014
rhumerus 20.2818 9.80244 -68.3836
rradius 27.1706
rwrist 6.14641
rhand -15.0493 -1.92179
rfingers 7.12502
rthumb 11.1172 -31.6073
lclavicle -1.55052e-014 -3.26007e-014
lhumerus 0.548509 -27.5772 83.6063
lradius 82.6722
lwrist 13.7099
lhand -17.3334 20.8769
lfingers 7.12502
lthumb 8.91359 50.6686
rfemur -19.1087 8.56841 0.425293
rtibia 41.743
rfoot 25.1776 -4.38808
rtoes 3.14564
lfemur 17.9571 -2.80328 -16.4135
ltibia 22.0878
lfoot -21.7211 18.8589
ltoes -9.25988
2243
root 4.99882 18.466 -2.04698 -16.5131 -1.34124 -2.80163
lowerback 2.08375 -0.904815 -6.72026
upperback 0.642298 -1.34483 -0.140133
thorax -0.355088 -0.676468 3.65321
lowerneck 1.78687 -7.25969 -10.4717
upperneck 23.9099 -11.4158 7.87371
head 8.15033 -5.83827 3.577
rclavicle 3.97569e-015 6.36111e-015
rhumerus 19.0617 13.332 -69.0922
rradius 27.2465
rwrist 8.13214
rhand -11.7108 0.327403
rfingers 7.12502
rthumb 14.3357 -29.1577
lclavicle 3.97569e-015 6.36111e-015
lhumerus -0.325328 -28.264 84.3598
lradius 83.3353
lwrist 14.2136
lhand -16.5241 20.1227
lfingers 7.12502
lthumb 9.6945 49.8796
rfemur -19.2659 8.4822 0.471595
rtibia 40.7641
rfoot 24.0935 -4.20672
rtoes 2.30533
lfemur 17.5411 -3.06209 -16.2463
ltibia 22.1167
lfoot -21.6374 19.0434
ltoes -8.79931
2244
root 5.04834 18.49 -2.10612 -16.4132 -1.21021 -3.01211
lowerback 2.22038 -0.84988 -6.58474
upperback 0.803661 -1.27305 -0.0962543
thorax -0.275218 -0.647165 3.62207
lowerneck 1.32769 -7.43011 -10.6244
upperneck 23.5227 -11.619 8.09996
head 8.14402 -5.91439 3.63845
rclavicle -6.16232e-015 -2.38542e-015
rhumerus 17.8612 15.5902 -70.5083
rradius 27.2251
rwrist 10.5731
rhand -7.91769 2.84808
rfingers 7.12502
rthumb 17.988 -26.3401
lclavicle -6.16232e-015 -2.38542e-015
lhumerus -1.09351 -29.0764 85.0931
lradius 84.1107
lwrist 13.9097
lhand -15.6744 19.8769
lfingers 7.12502
lthumb 10.5142 49.594
rfemur -19.3995 8.35797 0.307351
rtibia 39.8328
rfoot 22.6204 -4.03764
rtoes 0.745296
lfemur 17.2037 -3.26253 -16.2616
ltibia 22.1233
lfoot -21.5091 19.1302
ltoes -7.99625
2245
root 5.0904 18.5078 -2.16682 -16.5048 -1.15251 -3.18187
lowerback 2.61472 -0.67261 -6.41205
upperback 1.04244 -1.05437 -0.16889
thorax -0.278922 -0.543051 3.4499
lowerneck 0.940374 -7.69269 -10.5957
upperneck 22.8672 -11.9729 8.45577
head 8.04685 -6.04021 3.70193
rclavicle -1.19271e-015 5.56597e-015
rhumerus 16.5892 16.7863 -72.579
rradius 27.1092
rwrist 12.7175
rhand -4.64525 4.89087
rfingers 7.12502
rthumb 21.1342 -23.9773
lclavicle -1.19271e-015 5.56597e-015
lhumerus -1.74757 -30.2311 85.6039
lradius 85.0598
lwrist 13.3518
lhand -14.7665 19.695
lfingers 7.12502
lthumb 11.39 49.3657
rfemur -19.3805 8.32235 0.185929
rtibia 38.9421
rfoot 21.0124 -3.54569
rtoes -1.41486
lfemur 17.1005 -3.41836 -16.2912
ltibia 22.1089
lfoot -21.4484 19.181
ltoes -7.54402
2246
root 5.12709 18.5182 -2.22628 -16.5672 -1.11454 -3.49398
lowerback 2.97598 -0.449853 -6.10145
upperback 1.24992 -0.768725 -0.210178
thorax -0.303108 -0.403373 3.22887
lowerneck 0.72635 -7.94694 -10.5697
upperneck 22.1425 -12.3466 8.92964
head 7.90755 -6.17441 3.8103
rclavicle 3.00165e-014 2.38542e-015
rhumerus 15.2113 17.9734 -74.6665
rradius 26.9552
rwrist 14.1698
rhand -3.27757 5.5077
rfingers 7.12502
rthumb 22.4475 -23.2078
lclavicle 3.00165e-014 2.38542e-015
lhumerus -2.38955 -31.5099 86.1078
lradius 86.0113
lwrist 13.0068
lhand -14.2247 19.1456
lfingers 7.12502
lthumb 11.9124 48.7867
rfemur -19.3948 8.38428 0.241851
rtibia 38.0751
rfoot 19.3251 -3.17887
rtoes -2.79732
lfemur 16.9563 -3.61746 -16.1281
ltibia 22.1337
lfoot -21.5278 19.1246
ltoes -6.83836
2247
root 5.16232 18.5355 -2.28909 -16.4098 -1.15118 -3.97425
lowerback 3.16363 -0.249863 -5.68983
upperback 1.3725 -0.498844 -0.121101
thorax -0.3126 -0.269714 3.08291
lowerneck 0.607289 -8.15519 -10.6607
upperneck 21.3715 -12.6349 9.34569
head 7.73462 -6.28672 3.92959
rclavicle 1.27222e-014 -6.36111e-015
rhumerus 13.8678 19.8056 -76.4436
rradius 26.8436
rwrist 14.5739
rhand -2.54136 5.54948
rfingers 7.12502
rthumb 23.1541 -23.079
lclavicle 1.27222e-014 -6.36111e-015
lhumerus -3.09426 -32.511 86.7891
lradius 86.9574
lwrist 12.4459
lhand -13.4937 18.6936
lfingers 7.12502
lthumb 12.6172 48.2925
rfemur -19.6511 8.52414 0.482533
rtibia 37.1944
rfoot 17.5167 -3.22582
rtoes -2.74069
lfemur 16.5367 -3.72636 -15.693
ltibia 22.194
lfoot -21.4253 19.0538
ltoes -6.41143
